<svg fill="none" height="25" viewbox="0 0 24 25" width="24" xmlns="http://www.w3.org/2000/svg">
<path d="M18.864 17.972L13.728 12.884C14.208 12.164 14.448 11.3 14.448 10.34C14.448 7.70004 12.288 5.54004 9.64796 5.54004C7.00796 5.54004 4.84796 7.70004 4.84796 10.34C4.84796 12.98 7.00796 15.14 9.64796 15.14C10.752 15.14 11.76 14.756 12.576 14.132L17.616 19.172C17.76 19.316 18 19.412 18.192 19.412C18.384 19.412 18.624 19.316 18.768 19.172C19.2 18.836 19.2 18.308 18.864 17.972ZM6.57596 10.34C6.57596 8.61204 7.96796 7.22004 9.69596 7.22004C11.424 7.22004 12.816 8.61204 12.816 10.34C12.816 12.068 11.376 13.46 9.69596 13.46C7.96796 13.46 6.57596 12.068 6.57596 10.34Z" fill="white"></path>
<g opacity="0.5">
<path d="M9.02395 13.7481C9.88795 13.7481 10.656 13.4601 11.328 12.9801C10.848 13.2681 10.272 13.4601 9.69595 13.4601C7.96795 13.4601 6.57595 12.0681 6.57595 10.3401C6.57595 8.6121 7.96795 7.2201 9.69595 7.2201C11.424 7.2201 12.816 8.6121 12.816 10.3401C12.816 10.7241 12.72 11.1081 12.576 11.4921C12.816 10.9641 12.96 10.4361 12.96 9.8121C12.96 7.6521 11.184 5.8761 9.02395 5.8761C7.96795 5.8761 7.00795 6.3081 6.28795 6.9801C6.09595 7.1721 5.90395 7.4121 5.75995 7.6041C5.32795 8.2281 5.08795 8.9481 5.08795 9.7641C5.08795 11.9721 6.86395 13.7481 9.02395 13.7481Z" fill="url(#paint0_linear_4266_4108)" opacity="0.4"></path>
<path d="M18.8639 17.9722L13.7279 12.8842C13.4399 13.3642 13.0559 13.7962 12.6239 14.1322L17.6639 19.1722C17.8079 19.3162 18.0479 19.4122 18.2399 19.4122C18.4319 19.4122 18.6719 19.3162 18.8159 19.1722C19.1999 18.8362 19.1999 18.3082 18.8639 17.9722Z" fill="url(#paint1_linear_4266_4108)" opacity="0.4"></path>
</g>
<defs>
<lineargradient gradientunits="userSpaceOnUse" id="paint0_linear_4266_4108" x1="11.8076" x2="6.18317" y1="6.98144" y2="12.6059">
<stop stop-color="#101043"></stop>
<stop offset="0.4" stop-color="#101043" stop-opacity="0"></stop>
<stop offset="0.6" stop-color="#101043" stop-opacity="0"></stop>
<stop offset="1" stop-color="#101043"></stop>
</lineargradient>
<lineargradient gradientunits="userSpaceOnUse" id="paint1_linear_4266_4108" x1="15.6527" x2="13.1818" y1="15.9811" y2="13.5102">
<stop stop-color="#101043" stop-opacity="0"></stop>
<stop offset="1" stop-color="#101043"></stop>
</lineargradient>
</defs>
</svg>