<svg width="240" height="37" viewBox="0 0 240 37" fill="none" xmlns="http://www.w3.org/2000/svg">
<g clip-path="url(#clip0)">
<path d="M127.237 5.78947C127.237 6.18421 127.368 6.44737 127.5 6.57895C127.763 6.8421 128.29 7.10526 128.947 7.10526C129.342 7.10526 129.605 7.10526 129.868 6.97368C130.395 6.8421 130.526 6.44737 130.526 6.05263C130.526 5.78947 130.395 5.52631 130.132 5.39473C129.868 5.26316 129.474 5.13158 129.079 5L128.29 4.86842C127.5 4.73684 126.842 4.47368 126.579 4.21052C126.053 3.81579 125.79 3.28947 125.79 2.5C125.79 1.8421 126.053 1.18421 126.579 0.789471C127.105 0.263155 127.895 0.131577 128.816 0.131577C129.605 0.131577 130.395 0.394734 130.921 0.789471C131.579 1.18421 131.842 1.8421 131.842 2.76316H130.263C130.263 2.23684 130 1.97368 129.605 1.71052C129.342 1.57894 129.079 1.44737 128.684 1.44737C128.29 1.44737 127.895 1.57894 127.632 1.71052C127.368 1.8421 127.237 2.10526 127.237 2.36842C127.237 2.63158 127.368 2.89473 127.632 3.02631C127.763 3.15789 128.158 3.28947 128.684 3.28947L130.132 3.55263C130.79 3.68421 131.184 3.94737 131.447 4.07894C131.974 4.47368 132.105 5 132.105 5.65789C132.105 6.31579 131.842 6.97368 131.316 7.5C130.79 8.02631 130 8.15789 128.947 8.15789C127.895 8.15789 127.105 7.89473 126.447 7.5C125.79 6.97368 125.526 6.44737 125.526 5.52631H127.237V5.78947Z" fill="black"/>
<path d="M137.895 2.36842C138.158 2.5 138.421 2.63157 138.553 2.89473C138.684 3.15789 138.816 3.28947 138.816 3.55263C138.816 3.81579 138.816 4.21052 138.816 4.73684V8.15789H137.237V4.60526C137.237 4.3421 137.237 4.07894 137.105 3.81579C136.974 3.55263 136.711 3.42105 136.316 3.42105C135.921 3.42105 135.658 3.55263 135.395 3.81579C135.132 4.07894 135.132 4.47368 135.132 5V8.15789H133.553V0.263153H135.132V3.02631C135.395 2.63157 135.658 2.5 135.921 2.36842C136.184 2.23684 136.579 2.10526 136.842 2.10526C137.237 2.23684 137.5 2.23684 137.895 2.36842Z" fill="black"/>
<path d="M143.026 4.60526C143.289 4.60526 143.553 4.47368 143.684 4.47368C143.947 4.3421 143.947 4.21052 143.947 4.07894C143.947 3.81578 143.816 3.6842 143.684 3.55262C143.553 3.42104 143.289 3.42104 142.895 3.42104C142.5 3.42104 142.237 3.55262 142.105 3.6842C141.974 3.81578 141.974 3.94736 141.842 4.21052H140.395C140.395 3.6842 140.526 3.28947 140.789 2.89473C141.184 2.36841 141.842 2.10526 142.895 2.10526C143.553 2.10526 144.079 2.23683 144.605 2.49999C145.132 2.76315 145.395 3.28947 145.395 3.94736V6.57894C145.395 6.71052 145.395 6.97368 145.395 7.23683C145.395 7.49999 145.395 7.63157 145.526 7.63157C145.526 7.76315 145.658 7.76315 145.789 7.76315V8.02631H144.079C144.079 7.89473 143.947 7.76315 143.947 7.76315C143.947 7.63157 143.947 7.49999 143.947 7.36841C143.684 7.63157 143.553 7.76315 143.158 7.89473C142.895 8.02631 142.5 8.15789 141.974 8.15789C141.447 8.15789 141.053 8.02631 140.658 7.76315C140.263 7.49999 140.132 6.97368 140.132 6.44736C140.132 5.78947 140.395 5.26315 140.921 4.86841C141.184 4.73683 141.711 4.60526 142.237 4.47368L143.026 4.60526ZM144.079 5.39473C143.947 5.39473 143.947 5.52631 143.816 5.52631C143.684 5.52631 143.553 5.65789 143.421 5.65789L143.026 5.78947C142.763 5.78947 142.5 5.92104 142.368 6.05262C142.105 6.1842 141.974 6.44736 141.974 6.71052C141.974 6.97368 142.105 7.10526 142.237 7.23683C142.368 7.36841 142.5 7.36841 142.763 7.36841C143.158 7.36841 143.421 7.23683 143.684 7.10526C143.947 6.97368 144.079 6.57894 144.079 6.05262V5.39473Z" fill="black"/>
<path d="M152.237 3.02631C152.763 3.55262 152.895 4.21052 152.895 5.26315C152.895 6.31578 152.632 7.10525 152.237 7.63157C151.711 8.15789 151.184 8.42104 150.395 8.42104C149.869 8.42104 149.605 8.28946 149.211 8.02631C149.079 7.89473 148.816 7.76315 148.684 7.49999V10.5263H147.237V2.36841H148.684V3.28946C148.816 3.02631 149.079 2.89473 149.211 2.63157C149.605 2.36841 150 2.23683 150.395 2.23683C151.184 2.23683 151.711 2.49999 152.237 3.02631ZM151.053 4.07894C150.79 3.6842 150.526 3.55262 150 3.55262C149.474 3.55262 149.079 3.81578 148.816 4.34209C148.684 4.60525 148.684 4.99999 148.684 5.39473C148.684 6.05262 148.816 6.57894 149.211 6.84209C149.474 6.97367 149.737 7.10525 150 7.10525C150.395 7.10525 150.79 6.97367 150.921 6.57894C151.184 6.31578 151.316 5.78946 151.316 5.26315C151.316 4.86841 151.184 4.47367 151.053 4.07894Z" fill="black"/>
<path d="M158.158 2.49999C158.553 2.63157 158.947 3.02631 159.211 3.42104C159.474 3.81578 159.605 4.21052 159.737 4.60525C159.737 4.86841 159.737 5.26315 159.737 5.78946H155.526C155.526 6.31578 155.789 6.84209 156.184 6.97367C156.447 7.10525 156.711 7.23683 156.974 7.23683C157.368 7.23683 157.632 7.10525 157.763 6.97367C157.895 6.84209 158.026 6.71052 158.026 6.57894H159.605C159.605 6.97367 159.342 7.23683 159.079 7.63157C158.553 8.15788 157.763 8.42104 156.842 8.42104C156.053 8.42104 155.395 8.15788 154.737 7.76315C154.211 7.23683 153.816 6.44736 153.816 5.39473C153.816 4.34209 154.079 3.55262 154.605 3.02631C155.132 2.49999 155.789 2.23683 156.711 2.23683C157.368 2.23683 157.763 2.36841 158.158 2.49999ZM155.921 3.81578C155.658 4.07894 155.526 4.34209 155.526 4.73683H158.158C158.158 4.34209 158.026 4.07894 157.763 3.81578C157.5 3.55262 157.237 3.55262 156.842 3.55262C156.447 3.42104 156.184 3.55262 155.921 3.81578Z" fill="black"/>
<path d="M164.605 9.34211H164.737C164.868 9.34211 165 9.34211 165.132 9.34211C165.263 9.34211 165.395 9.34211 165.526 9.21053C165.658 9.21053 165.658 9.07895 165.789 8.81579C165.921 8.68421 165.921 8.55264 165.921 8.42106L163.816 2.36842H165.526L166.842 6.71053L168.026 2.36842H169.605L167.632 8.1579C167.237 9.21053 166.974 10 166.711 10.2632C166.447 10.5263 166.053 10.6579 165.395 10.6579C165.263 10.6579 165.132 10.6579 165.132 10.6579C165 10.6579 164.868 10.6579 164.737 10.6579V9.34211H164.605Z" fill="black"/>
<path d="M175.79 7.49999C175.263 8.15789 174.605 8.42105 173.553 8.42105C172.5 8.42105 171.842 8.15789 171.316 7.49999C170.79 6.8421 170.526 6.1842 170.526 5.26315C170.526 4.47368 170.79 3.6842 171.316 3.02631C171.842 2.36841 172.5 2.10526 173.553 2.10526C174.605 2.10526 175.263 2.36841 175.79 3.02631C176.316 3.6842 176.579 4.3421 176.579 5.26315C176.579 6.1842 176.316 6.8421 175.79 7.49999ZM174.605 6.71052C174.868 6.44736 175 5.92104 175 5.39473C175 4.86841 174.868 4.3421 174.605 4.07894C174.342 3.81578 174.079 3.55262 173.553 3.55262C173.158 3.55262 172.763 3.6842 172.5 4.07894C172.237 4.3421 172.105 4.86841 172.105 5.39473C172.105 5.92104 172.237 6.44736 172.5 6.71052C172.763 6.97368 173.026 7.23683 173.553 7.23683C173.947 7.10526 174.342 6.97368 174.605 6.71052Z" fill="black"/>
<path d="M179.605 2.36842V5.92105C179.605 6.18421 179.605 6.44737 179.737 6.71053C179.868 6.97369 180.132 7.10527 180.526 7.10527C181.053 7.10527 181.447 6.84211 181.579 6.44737C181.711 6.18421 181.711 5.92105 181.711 5.52632V2.36842H183.29V8.1579H181.842V7.36842C181.842 7.36842 181.842 7.5 181.711 7.5C181.711 7.63158 181.579 7.63158 181.447 7.76316C181.184 8.02632 180.921 8.1579 180.79 8.1579C180.526 8.28947 180.263 8.28948 180 8.28948C179.079 8.28948 178.553 8.02632 178.29 7.36842C178.158 6.97369 178.026 6.57895 178.026 5.92105V2.36842H179.605Z" fill="black"/>
<path d="M188.421 2.23683L188.553 3.81578C188.421 3.81578 188.421 3.81578 188.29 3.81578C188.158 3.81578 188.158 3.81578 188.158 3.81578C187.5 3.81578 187.105 4.07894 186.974 4.47367C186.842 4.73683 186.842 4.99999 186.842 5.52631V8.28946H185.263V2.36841H186.711V3.42104C186.974 3.02631 187.105 2.76315 187.368 2.63157C187.5 2.36841 187.895 2.23683 188.421 2.23683Z" fill="black"/>
<path d="M196.053 2.36842H197.632L198.553 6.57895L199.474 2.36842H201.053L199.342 8.1579H197.763L196.842 3.94737L195.921 8.1579H194.342L192.763 2.36842H194.342L195.263 6.57895L196.053 2.36842Z" fill="black"/>
<path d="M207.105 7.49999C206.579 8.15789 205.921 8.42105 204.868 8.42105C203.816 8.42105 203.158 8.15789 202.632 7.49999C202.105 6.8421 201.842 6.1842 201.842 5.26315C201.842 4.47368 202.105 3.6842 202.632 3.02631C203.158 2.36841 203.816 2.10526 204.868 2.10526C205.921 2.10526 206.579 2.36841 207.105 3.02631C207.632 3.6842 207.895 4.3421 207.895 5.26315C207.895 6.1842 207.632 6.8421 207.105 7.49999ZM205.921 6.71052C206.184 6.44736 206.316 5.92104 206.316 5.39473C206.316 4.86841 206.184 4.3421 205.921 4.07894C205.658 3.81578 205.395 3.55262 204.868 3.55262C204.474 3.55262 204.079 3.6842 203.816 4.07894C203.553 4.3421 203.421 4.86841 203.421 5.39473C203.421 5.92104 203.553 6.44736 203.816 6.71052C204.079 6.97368 204.342 7.23683 204.868 7.23683C205.395 7.10526 205.658 6.97368 205.921 6.71052Z" fill="black"/>
<path d="M212.632 2.23683C212.632 2.23683 212.763 2.23683 212.632 2.23683L212.763 3.81578C212.632 3.81578 212.632 3.81578 212.5 3.81578C212.368 3.81578 212.368 3.81578 212.368 3.81578C211.711 3.81578 211.316 4.07894 211.184 4.47367C211.053 4.73683 211.053 4.99999 211.053 5.52631V8.28946H209.474V2.36841H210.921V3.42104C211.184 3.02631 211.316 2.76315 211.579 2.63157C211.711 2.36841 212.105 2.23683 212.632 2.23683Z" fill="black"/>
<path d="M215.658 8.15789H214.079V0.263153H215.658V8.15789Z" fill="black"/>
<path d="M220.658 2.49999C220.921 2.63157 221.184 2.89473 221.316 3.15789V0.39473H222.895V8.28947H221.447V7.36842C221.184 7.76315 220.921 8.02631 220.658 8.15789C220.395 8.28947 220 8.42105 219.605 8.42105C218.947 8.42105 218.29 8.15789 217.895 7.63157C217.369 7.10526 217.237 6.31578 217.237 5.52631C217.237 4.47368 217.5 3.81578 217.895 3.15789C218.29 2.63157 218.947 2.36841 219.737 2.36841C220.132 2.23684 220.395 2.36841 220.658 2.49999ZM221.053 6.57894C221.316 6.31578 221.447 5.78947 221.447 5.39473C221.447 4.73684 221.316 4.21052 220.921 3.81578C220.658 3.6842 220.395 3.55263 220.132 3.55263C219.737 3.55263 219.342 3.6842 219.211 4.07894C218.947 4.47368 218.947 4.86841 218.947 5.39473C218.947 5.92105 219.079 6.31578 219.211 6.71052C219.474 6.97368 219.737 7.23684 220.132 7.23684C220.526 7.10526 220.79 6.97368 221.053 6.57894Z" fill="black"/>
<path d="M126.184 15H129.737C130.395 15 130.79 15.1316 131.184 15.2632C131.974 15.6579 132.237 16.1842 132.237 17.1053C132.237 17.6316 132.105 18.0263 131.974 18.2895C131.842 18.5526 131.447 18.8158 131.184 19.0789C131.447 19.2105 131.711 19.3421 131.842 19.6053C131.974 19.8684 132.105 20.1316 132.105 20.6579V21.7105C132.105 21.9737 132.105 22.2368 132.237 22.3684C132.237 22.6316 132.369 22.7632 132.632 22.8947V23.0263H131.316C131.316 22.8947 131.316 22.8947 131.184 22.7632C131.184 22.6316 131.184 22.5 131.184 22.1053L131.053 20.7895C131.053 20.2632 130.79 19.8684 130.526 19.7368C130.263 19.6053 130 19.6053 129.605 19.6053H127.237V23.0263H126.184V15ZM129.737 18.6842C130.263 18.6842 130.658 18.5526 130.921 18.4211C131.184 18.1579 131.316 17.8947 131.316 17.3684C131.316 16.8421 131.053 16.4474 130.658 16.1842C130.395 16.0526 130.132 16.0526 129.737 16.0526H127.237V18.8158H129.737V18.6842Z" fill="black"/>
<path d="M133.947 15H135V16.0526H133.947V15ZM133.947 17.2368H135V23.0263H133.947V17.2368Z" fill="black"/>
<path d="M136.842 15.6579H137.763V17.2368H138.684V18.0263H137.763V21.8421C137.763 22.1053 137.895 22.2368 138.026 22.2368C138.158 22.2368 138.29 22.2368 138.421 22.2368H138.553H138.684V23.0263C138.553 23.0263 138.421 23.0263 138.29 23.1579C138.158 23.1579 138.026 23.1579 137.895 23.1579C137.5 23.1579 137.105 23.0263 136.974 22.7632C136.842 22.5 136.711 22.2368 136.711 21.8421V18.0263H135.921V17.2368H136.711V15.6579H136.842Z" fill="black"/>
<path d="M140.921 21.1842C140.921 21.4474 141.053 21.7105 141.184 21.9737C141.447 22.2368 141.842 22.5 142.5 22.5C142.895 22.5 143.158 22.3684 143.421 22.2368C143.684 22.1053 143.816 21.8421 143.816 21.4474C143.816 21.1842 143.684 21.0526 143.421 20.9211C143.289 20.7895 143.026 20.7895 142.632 20.6579L141.842 20.5263C141.316 20.3947 140.921 20.2632 140.789 20.1316C140.395 19.8684 140.132 19.4737 140.132 19.079C140.132 18.5526 140.395 18.0263 140.789 17.7632C141.184 17.3684 141.711 17.2368 142.368 17.2368C143.289 17.2368 143.947 17.5 144.342 18.0263C144.605 18.2895 144.737 18.6842 144.737 19.079H143.816C143.816 18.8158 143.684 18.6842 143.553 18.4211C143.289 18.1579 142.895 18.0263 142.368 18.0263C141.974 18.0263 141.711 18.1579 141.579 18.2895C141.447 18.4211 141.316 18.5526 141.316 18.8158C141.316 19.079 141.447 19.2105 141.711 19.4737C141.842 19.6053 142.105 19.6053 142.368 19.7368L143.026 19.8684C143.684 20 144.211 20.2632 144.474 20.3947C144.868 20.6579 145 21.0526 145 21.579C145 22.1053 144.737 22.5 144.342 22.8947C143.947 23.2895 143.289 23.4211 142.5 23.4211C141.579 23.4211 141.053 23.2895 140.658 22.8947C140.263 22.5 140.132 21.9737 140.132 21.4474H140.921V21.1842Z" fill="black"/>
<path d="M147.105 17.2368V21.0526C147.105 21.3158 147.105 21.5789 147.237 21.7105C147.368 22.1053 147.763 22.2368 148.158 22.2368C148.816 22.2368 149.211 21.9737 149.474 21.3158C149.605 21.0526 149.605 20.5263 149.605 20V17.1053H150.526V22.8947H149.605V21.9737C149.474 22.2368 149.342 22.3684 149.079 22.5C148.684 22.7632 148.29 22.8947 147.763 22.8947C146.974 22.8947 146.447 22.6316 146.053 22.1053C145.921 21.8421 145.79 21.4474 145.79 20.921V16.9737H147.105V17.2368Z" fill="black"/>
<path d="M152.5 17.2368H153.421V18.0263C153.684 17.7632 153.816 17.5 154.079 17.3684C154.342 17.1053 154.737 16.9737 155.132 16.9737C155.658 16.9737 155.921 17.1053 156.184 17.3684C156.316 17.5 156.447 17.6316 156.579 17.8947C156.842 17.6316 157.105 17.3684 157.368 17.2368C157.632 17.1053 158.026 16.9737 158.289 16.9737C159.079 16.9737 159.605 17.2368 159.868 17.7632C160 18.0263 160.132 18.421 160.132 18.9474V22.7632H159.079V18.6842C159.079 18.2895 158.947 18.0263 158.816 17.8947C158.684 17.7632 158.421 17.6316 158.158 17.6316C157.763 17.6316 157.5 17.7632 157.237 18.0263C156.974 18.2895 156.842 18.6842 156.842 19.3421V22.7632H155.789V18.9474C155.789 18.5526 155.789 18.2895 155.658 18.0263C155.526 17.7632 155.263 17.6316 154.868 17.6316C154.474 17.6316 154.211 17.7632 153.816 18.0263C153.553 18.2895 153.421 18.8158 153.421 19.6053V22.6316H152.5V17.2368Z" fill="black"/>
<path d="M165.526 17.3684C165.921 17.5 166.184 17.7632 166.447 18.1579C166.579 18.4211 166.711 18.8158 166.842 19.2105C166.842 19.4737 166.974 19.8684 166.974 20.5263H162.763C162.763 21.0526 162.895 21.579 163.158 21.9737C163.421 22.3684 163.816 22.5 164.342 22.5C164.868 22.5 165.263 22.3684 165.526 21.9737C165.658 21.8421 165.79 21.579 165.921 21.3158H166.842C166.842 21.579 166.711 21.7105 166.579 21.9737C166.447 22.2368 166.316 22.5 166.053 22.6316C165.79 22.8947 165.395 23.1579 165 23.1579C164.737 23.1579 164.474 23.2895 164.211 23.2895C163.553 23.2895 162.895 23.0263 162.368 22.5C161.842 21.9737 161.579 21.1842 161.579 20.2632C161.579 19.3421 161.842 18.5526 162.368 18.0263C162.895 17.5 163.553 17.1053 164.342 17.1053C164.737 17.1053 165.132 17.2368 165.526 17.3684ZM165.921 19.6053C165.921 19.2105 165.79 18.8158 165.658 18.5526C165.395 18.0263 165 17.8947 164.342 17.8947C163.947 17.8947 163.553 18.0263 163.29 18.4211C163.026 18.6842 162.763 19.2105 162.763 19.6053H165.921Z" fill="black"/>
<path d="M168.421 15H169.474V16.0526H168.421V15ZM168.421 17.2368H169.474V23.0263H168.421V17.2368Z" fill="black"/>
<path d="M171.184 15H172.105V19.7368L174.605 17.2368H175.79L173.553 19.3421L175.921 23.0263H174.737L172.895 20.1316L172.105 20.9211V23.1579H171.184V15Z" fill="black"/>
<path d="M180.132 19.4737C180.395 19.4737 180.526 19.3421 180.526 19.2105C180.526 19.0789 180.526 18.9474 180.526 18.8158C180.526 18.421 180.395 18.2895 180.132 18.0263C179.868 17.8947 179.605 17.7632 179.079 17.7632C178.553 17.7632 178.158 17.8947 178.026 18.1579C177.895 18.2895 177.895 18.5526 177.763 18.8158H176.842C176.842 18.1579 177.105 17.6316 177.5 17.3684C177.895 17.1053 178.421 16.9737 179.079 16.9737C179.737 16.9737 180.263 17.1053 180.79 17.3684C181.184 17.6316 181.447 18.0263 181.447 18.5526V21.8421C181.447 21.9737 181.447 21.9737 181.447 22.1053C181.447 22.1053 181.579 22.2368 181.711 22.2368H181.842H181.974V22.8947C181.842 22.8947 181.711 23.0263 181.579 23.0263C181.447 23.0263 181.447 23.0263 181.316 23.0263C180.921 23.0263 180.79 22.8947 180.526 22.6316C180.395 22.5 180.395 22.3684 180.395 22.1053C180.263 22.3684 179.868 22.6316 179.605 22.7632C179.211 22.8947 178.816 23.0263 178.421 23.0263C177.895 23.0263 177.5 22.8947 177.105 22.5C176.711 22.2368 176.579 21.7105 176.579 21.3158C176.579 20.7895 176.711 20.3947 177.105 20.1316C177.5 19.8684 177.895 19.6053 178.421 19.6053L180.132 19.4737ZM178.026 22.1053C178.29 22.2368 178.421 22.3684 178.816 22.3684C179.211 22.3684 179.474 22.2368 179.868 22.1053C180.395 21.8421 180.658 21.4474 180.658 20.7895V20C180.526 20.1316 180.395 20.1316 180.263 20.1316C180.132 20.1316 179.868 20.2632 179.737 20.2632L179.211 20.3947C178.816 20.3947 178.553 20.5263 178.421 20.6579C178.158 20.7895 178.026 21.0526 178.026 21.4474C177.763 21.7105 177.895 21.9737 178.026 22.1053Z" fill="black"/>
<path d="M183.421 17.2368H184.342V18.0263C184.605 17.6316 184.869 17.5 185.263 17.2368C185.526 17.1053 185.921 16.9737 186.316 16.9737C187.105 16.9737 187.632 17.2368 188.026 17.8947C188.158 18.1579 188.29 18.6842 188.29 19.2105V22.8947H187.237V19.2105C187.237 18.8158 187.237 18.5526 187.105 18.2895C186.974 17.8947 186.579 17.7632 186.184 17.7632C185.921 17.7632 185.79 17.7632 185.658 17.8947C185.395 18.0263 185.132 18.1579 185 18.421C184.869 18.5526 184.737 18.8158 184.737 19.0789C184.737 19.3421 184.605 19.6053 184.605 20V23.0263H183.684V17.2368H183.421Z" fill="black"/>
<path d="M128.684 25.7895H129.868L132.763 33.6842H131.579L130.79 31.3158H127.632L126.711 33.6842H125.658L128.684 25.7895ZM130.395 30.3947L129.211 26.8421L127.895 30.3947H130.395Z" fill="black"/>
<path d="M134.342 31.8421C134.342 32.1053 134.474 32.3684 134.605 32.6316C134.869 32.8947 135.263 33.1579 135.921 33.1579C136.316 33.1579 136.579 33.0263 136.842 32.8947C137.105 32.7632 137.237 32.5 137.237 32.1053C137.237 31.8421 137.105 31.7105 136.842 31.5789C136.711 31.4474 136.447 31.4474 136.053 31.3158L135.263 31.0526C134.737 30.921 134.342 30.7895 134.211 30.6579C133.816 30.3947 133.553 30 133.553 29.6053C133.553 29.0789 133.816 28.5526 134.211 28.2895C134.605 27.8947 135.132 27.7632 135.79 27.7632C136.711 27.7632 137.369 28.0263 137.763 28.5526C138.026 28.8158 138.158 29.2105 138.158 29.6053H137.237C137.237 29.3421 137.105 29.2105 136.974 28.9474C136.711 28.6842 136.316 28.5526 135.79 28.5526C135.395 28.5526 135.132 28.6842 135 28.8158C134.869 28.9474 134.737 29.0789 134.737 29.3421C134.737 29.6053 134.869 29.7368 135.132 30C135.263 30.1316 135.526 30.1316 135.79 30.2632L136.447 30.3947C137.105 30.5263 137.632 30.7895 137.895 30.921C138.29 31.1842 138.421 31.5789 138.421 32.1053C138.421 32.6316 138.158 33.0263 137.763 33.421C137.369 33.8158 136.711 33.9474 135.921 33.9474C135 33.9474 134.474 33.8158 134.079 33.421C133.684 33.0263 133.553 32.5 133.553 31.9737H134.342V31.8421Z" fill="black"/>
<path d="M139.605 25.7895H140.658V26.8421H139.605V25.7895ZM139.605 27.8947H140.658V33.6842H139.605V27.8947Z" fill="black"/>
<path d="M145.395 30.1316C145.658 30.1316 145.79 30 145.79 29.8684C145.79 29.7369 145.921 29.6053 145.921 29.4737C145.921 29.079 145.79 28.9474 145.526 28.6842C145.263 28.5526 145 28.4211 144.474 28.4211C143.947 28.4211 143.553 28.5526 143.421 28.8158C143.29 28.9474 143.29 29.2105 143.158 29.4737H142.237C142.237 28.8158 142.5 28.2895 142.895 28.0263C143.29 27.7632 143.816 27.6316 144.474 27.6316C145.132 27.6316 145.658 27.7632 146.184 28.0263C146.579 28.2895 146.842 28.6842 146.842 29.2105V32.5C146.842 32.6316 146.842 32.6316 146.842 32.7632C146.842 32.7632 146.974 32.8947 147.105 32.8947H147.237H147.368V33.5526C147.237 33.5526 147.105 33.6842 146.974 33.6842C146.842 33.6842 146.842 33.6842 146.711 33.6842C146.316 33.6842 146.184 33.5526 145.921 33.2895C145.79 33.1579 145.79 33.0263 145.79 32.7632C145.658 33.0263 145.263 33.2895 145 33.4211C144.605 33.5526 144.211 33.6842 143.816 33.6842C143.29 33.6842 142.895 33.5526 142.5 33.1579C142.105 32.8948 141.974 32.3684 141.974 31.9737C141.974 31.4474 142.105 31.0526 142.5 30.7895C142.895 30.5263 143.29 30.2632 143.816 30.2632L145.395 30.1316ZM143.29 32.7632C143.553 32.8947 143.684 33.0263 144.079 33.0263C144.474 33.0263 144.737 32.8947 145.132 32.7632C145.658 32.5 145.921 32.1053 145.921 31.4474V30.6579C145.79 30.7895 145.658 30.7895 145.526 30.7895C145.395 30.7895 145.132 30.9211 145 30.9211L144.474 31.0526C144.079 31.0526 143.816 31.1842 143.684 31.3158C143.421 31.4474 143.29 31.7105 143.29 32.1053C143.026 32.5 143.158 32.6316 143.29 32.7632Z" fill="black"/>
<path d="M151.974 25.7895H155.526C156.184 25.7895 156.842 26.0526 157.237 26.4474C157.632 26.8421 157.895 27.3684 157.895 28.1579C157.895 28.8158 157.763 29.3421 157.368 29.7368C156.974 30.1316 156.447 30.3947 155.658 30.3947H153.158V33.8158H152.105V25.7895H151.974ZM156.053 26.8421C155.79 26.7105 155.526 26.7105 155.132 26.7105H153.026V29.4737H155.132C155.658 29.4737 156.053 29.3421 156.316 29.2105C156.579 28.9474 156.711 28.6842 156.711 28.1579C156.711 27.5 156.579 27.1053 156.053 26.8421Z" fill="black"/>
<path d="M161.974 30.1316C162.237 30.1316 162.369 30 162.369 29.8684C162.369 29.7369 162.5 29.6053 162.5 29.4737C162.5 29.079 162.369 28.9474 162.105 28.6842C161.842 28.5526 161.579 28.4211 161.053 28.4211C160.526 28.4211 160.132 28.5526 160 28.8158C159.869 28.9474 159.869 29.2105 159.737 29.4737H158.816C158.816 28.8158 159.079 28.2895 159.474 28.0263C159.869 27.7632 160.395 27.6316 161.053 27.6316C161.711 27.6316 162.237 27.7632 162.763 28.0263C163.158 28.2895 163.421 28.6842 163.421 29.2105V32.5C163.421 32.6316 163.421 32.6316 163.421 32.7632C163.421 32.7632 163.553 32.8947 163.684 32.8947H163.816H163.947V33.5526C163.816 33.5526 163.684 33.6842 163.553 33.6842C163.421 33.6842 163.421 33.6842 163.29 33.6842C162.895 33.6842 162.763 33.5526 162.5 33.2895C162.369 33.1579 162.369 33.0263 162.369 32.7632C162.105 33.0263 161.842 33.2895 161.447 33.4211C161.053 33.5526 160.658 33.6842 160.263 33.6842C159.737 33.6842 159.342 33.5526 158.947 33.1579C158.553 32.8948 158.421 32.3684 158.421 31.9737C158.421 31.4474 158.553 31.0526 158.947 30.7895C159.342 30.5263 159.737 30.2632 160.263 30.2632L161.974 30.1316ZM159.869 32.7632C160.132 32.8947 160.263 33.0263 160.658 33.0263C161.053 33.0263 161.316 32.8947 161.711 32.7632C162.237 32.5 162.5 32.1053 162.5 31.4474V30.6579C162.369 30.7895 162.237 30.7895 162.105 30.7895C161.974 30.7895 161.711 30.9211 161.579 30.9211L161.053 31.0526C160.658 31.0526 160.395 31.1842 160.263 31.3158C160 31.4474 159.869 31.7105 159.869 32.1053C159.605 32.5 159.737 32.6316 159.869 32.7632Z" fill="black"/>
<path d="M169.079 28.1579C169.474 28.4211 169.737 29.079 169.868 29.7369H168.947C168.947 29.3421 168.816 29.079 168.553 28.8158C168.289 28.5526 168.026 28.4211 167.5 28.4211C166.842 28.4211 166.447 28.6842 166.184 29.3421C166.053 29.7369 165.921 30.2632 165.921 30.7895C165.921 31.3158 166.053 31.8421 166.316 32.2369C166.579 32.6316 166.974 32.8947 167.5 32.8947C167.895 32.8947 168.158 32.7632 168.421 32.5C168.684 32.2369 168.816 31.9737 168.947 31.4474H169.868C169.737 32.2369 169.474 32.7632 169.079 33.1579C168.684 33.5526 168.158 33.6842 167.368 33.6842C166.579 33.6842 166.053 33.4211 165.526 32.8947C165.132 32.3684 164.868 31.7105 164.868 30.7895C164.868 29.7369 165.132 28.9474 165.658 28.4211C166.184 27.8948 166.842 27.6316 167.5 27.6316C168.158 27.7632 168.684 27.8947 169.079 28.1579Z" fill="black"/>
<path d="M171.184 25.7895H172.237V26.8421H171.184V25.7895ZM171.184 27.8947H172.237V33.6842H171.184V27.8947Z" fill="black"/>
<path d="M174.605 26.1842C174.869 25.7895 175.263 25.6579 175.921 25.6579H176.053C176.184 25.6579 176.184 25.6579 176.316 25.6579V26.579C176.184 26.579 176.184 26.579 176.053 26.579H175.921C175.658 26.579 175.395 26.7105 175.395 26.8421C175.395 26.9737 175.263 27.3684 175.263 28.0263H176.184V28.8158H175.263V33.8158H174.342V28.8158H173.553V28.0263H174.342V27.1053C174.342 26.579 174.474 26.3158 174.605 26.1842Z" fill="black"/>
<path d="M177.895 25.7895H178.947V26.8421H177.895V25.7895ZM177.895 27.8947H178.947V33.6842H177.895V27.8947Z" fill="black"/>
<path d="M184.342 28.1579C184.737 28.4211 185 29.079 185.132 29.7369H184.211C184.211 29.3421 184.079 29.079 183.816 28.8158C183.553 28.5526 183.289 28.4211 182.763 28.4211C182.105 28.4211 181.711 28.6842 181.447 29.3421C181.316 29.7369 181.184 30.2632 181.184 30.7895C181.184 31.3158 181.316 31.8421 181.579 32.2369C181.842 32.6316 182.237 32.8947 182.763 32.8947C183.158 32.8947 183.553 32.7632 183.684 32.5C183.947 32.2369 184.079 31.9737 184.211 31.4474H185.132C185 32.2369 184.737 32.7632 184.342 33.1579C183.947 33.5526 183.289 33.6842 182.632 33.6842C181.842 33.6842 181.316 33.4211 180.789 32.8947C180.395 32.3684 180.132 31.7105 180.132 30.7895C180.132 29.7369 180.395 28.9474 180.921 28.4211C181.447 27.8948 182.105 27.6316 182.763 27.6316C183.421 27.7632 183.947 27.8947 184.342 28.1579Z" fill="black"/>
<path d="M190.921 25.7895V30.6579C190.921 31.1842 191.053 31.7105 191.184 32.1053C191.447 32.6316 192.105 33.0263 192.763 33.0263C193.684 33.0263 194.342 32.7632 194.605 32.1053C194.737 31.7105 194.868 31.3158 194.868 30.7895V25.9211H195.921V30.2632C195.921 31.1842 195.79 31.9737 195.526 32.5C195 33.4211 194.079 33.9474 192.763 33.9474C191.447 33.9474 190.526 33.4211 190 32.5C189.737 31.9737 189.605 31.1842 189.605 30.2632V25.7895H190.921Z" fill="black"/>
<path d="M197.895 27.8948H198.816V28.6842C199.079 28.2895 199.342 28.1579 199.737 27.8948C200 27.7632 200.395 27.6316 200.79 27.6316C201.579 27.6316 202.105 27.8948 202.5 28.5526C202.632 28.8158 202.763 29.3421 202.763 29.8684V33.5526H201.711V29.8684C201.711 29.4737 201.711 29.2105 201.579 29.079C201.447 28.6842 201.053 28.5526 200.658 28.5526C200.395 28.5526 200.263 28.5526 200.132 28.6842C199.868 28.8158 199.605 28.9474 199.474 29.2105C199.342 29.3421 199.211 29.6053 199.211 29.8684C199.211 30.1316 199.079 30.3947 199.079 30.7895V33.8158H198.158V27.8948H197.895Z" fill="black"/>
<path d="M204.211 25.7895H205.263V26.8421H204.211V25.7895ZM204.211 27.8947H205.263V33.6842H204.211V27.8947Z" fill="black"/>
<path d="M207.369 27.8947L208.947 32.6316L210.526 27.8947H211.579L209.342 33.6842H208.29L206.184 27.8947H207.369Z" fill="black"/>
<path d="M216.184 28.0263C216.579 28.1579 216.842 28.421 217.105 28.8158C217.237 29.0789 217.369 29.4737 217.5 29.8684C217.5 30.1316 217.632 30.5263 217.632 31.1842H213.421C213.421 31.7105 213.553 32.2368 213.816 32.6316C214.079 33.0263 214.474 33.1579 215 33.1579C215.526 33.1579 215.921 33.0263 216.184 32.6316C216.316 32.5 216.447 32.2368 216.579 31.9737H217.5C217.5 32.2368 217.369 32.3684 217.237 32.6316C217.105 32.8947 216.974 33.1579 216.711 33.2895C216.447 33.5526 216.053 33.8158 215.658 33.8158C215.395 33.8158 215.132 33.9474 214.869 33.9474C214.211 33.9474 213.553 33.6842 213.026 33.1579C212.5 32.6316 212.237 31.8421 212.237 30.921C212.237 30 212.5 29.2105 213.026 28.6842C213.553 28.1579 214.211 27.7632 215 27.7632C215.526 27.7632 215.921 27.8947 216.184 28.0263ZM216.579 30.3947C216.579 30 216.447 29.6053 216.316 29.3421C216.053 28.8158 215.658 28.6842 215 28.6842C214.605 28.6842 214.211 28.8158 213.816 29.2105C213.553 29.4737 213.421 30 213.29 30.3947H216.579Z" fill="black"/>
<path d="M218.816 27.8947H219.737V28.9474C219.869 28.8158 220 28.5526 220.263 28.2895C220.526 28.0263 220.921 27.8947 221.316 27.8947C221.316 27.8947 221.316 27.8947 221.447 27.8947C221.447 27.8947 221.579 27.8947 221.711 27.8947V28.9474H221.579H221.447C220.921 28.9474 220.526 29.079 220.263 29.4737C220 29.7368 219.869 30.1316 219.869 30.5263V33.8158H218.947V27.8947H218.816Z" fill="black"/>
<path d="M223.289 31.8421C223.289 32.1053 223.421 32.3684 223.553 32.6316C223.816 32.8947 224.211 33.1579 224.868 33.1579C225.263 33.1579 225.526 33.0263 225.789 32.8947C226.053 32.7632 226.184 32.5 226.184 32.1053C226.184 31.8421 226.053 31.7105 225.789 31.5789C225.658 31.4474 225.395 31.4474 225 31.3158L224.211 31.0526C223.684 30.921 223.289 30.7895 223.158 30.6579C222.763 30.3947 222.5 30 222.5 29.6053C222.5 29.0789 222.763 28.5526 223.158 28.2895C223.553 27.8947 224.079 27.7632 224.737 27.7632C225.658 27.7632 226.316 28.0263 226.711 28.5526C226.974 28.8158 227.105 29.2105 227.105 29.6053H226.184C226.184 29.3421 226.053 29.2105 225.921 28.9474C225.658 28.6842 225.263 28.5526 224.737 28.5526C224.342 28.5526 224.079 28.6842 223.947 28.8158C223.816 28.9474 223.684 29.0789 223.684 29.3421C223.684 29.6053 223.816 29.7368 224.079 30C224.211 30.1316 224.474 30.1316 224.737 30.2632L225.395 30.3947C226.053 30.5263 226.579 30.7895 226.842 30.921C227.237 31.1842 227.368 31.5789 227.368 32.1053C227.368 32.6316 227.105 33.0263 226.711 33.421C226.316 33.8158 225.658 33.9474 224.868 33.9474C223.947 33.9474 223.421 33.8158 223.026 33.421C222.632 33.0263 222.5 32.5 222.5 31.9737H223.289V31.8421Z" fill="black"/>
<path d="M228.553 25.7895H229.605V26.8421H228.553V25.7895ZM228.553 27.8947H229.605V33.6842H228.553V27.8947Z" fill="black"/>
<path d="M231.579 26.3158H232.5V27.8947H233.421V28.6842H232.5V32.5C232.5 32.7632 232.632 32.8947 232.763 32.8947C232.895 32.8947 233.026 32.8947 233.158 32.8947H233.29H233.421V33.6842C233.29 33.6842 233.158 33.6842 233.026 33.8158C232.895 33.8158 232.763 33.8158 232.632 33.8158C232.237 33.8158 231.842 33.6842 231.711 33.4211C231.579 33.1579 231.447 32.8947 231.447 32.5V28.6842H230.658V27.8947H231.447V26.3158H231.579Z" fill="black"/>
<path d="M238.947 27.8947H240C239.868 28.2895 239.605 29.079 239.079 30.3947C238.684 31.4474 238.421 32.2368 238.158 32.7632C237.632 34.2105 237.237 35.1316 236.974 35.5263C236.711 35.7895 236.316 36.0526 235.789 36.0526C235.658 36.0526 235.526 36.0526 235.526 36.0526C235.395 36.0526 235.395 36.0526 235.263 36.0526V35.1316C235.395 35.1316 235.526 35.2632 235.658 35.2632C235.789 35.2632 235.789 35.2632 235.921 35.2632C236.053 35.2632 236.184 35.2632 236.316 35.1316C236.447 35.1316 236.447 35 236.579 34.8684C236.579 34.8684 236.711 34.7369 236.842 34.4737C236.974 34.2105 236.974 33.9474 237.105 33.8158L235 27.8947H236.053L237.632 32.6316L238.947 27.8947Z" fill="black"/>
<path d="M67.6316 34.6053C83.2895 33.5526 94.7369 21.8421 114.342 30.2632V30.3947C98.5526 28.8158 86.579 40.9211 67.6316 34.6053Z" fill="#AA003E"/>
<path d="M33.8158 34.6053C49.4737 33.5526 60.9211 21.9737 80.5263 30.3947V30.5263C64.7368 28.9474 52.8947 41.0526 33.8158 34.7368V34.6053Z" fill="#AA003E"/>
<path d="M40.7895 25.7895L34.8684 8.81579L29.8684 25.1316C29.4737 26.0526 28.9473 27.5 28.9473 28.5526C28.9473 29.8684 29.8684 30.5263 30.6579 31.1842V31.3158H18.5526V31.1842C20.3947 29.4737 20.921 28.1579 21.8421 25.6579L27.8947 7.89474C28.421 6.84211 28.6842 6.18421 28.9473 5.26316C29.3421 3.94737 29.8684 0.789474 28.9473 0.131579V0H39.4737L50 28.8158C46.7105 27.2368 43.6842 26.3158 40.7895 25.7895Z" fill="#AA003E"/>
<path d="M94.4736 26.7105C95.6578 26.7105 97.1052 26.0526 97.7631 25.1316C98.9473 23.5526 99.0789 21.9737 99.0789 20V7.89474C98.9473 5.26316 99.342 2.63158 98.1578 0.131579V0H107.237V0.131579C106.184 2.76316 106.447 5.26316 106.316 7.89474V21.4474C106.316 25.3947 105.395 29.2105 101.842 30.7895C99.7368 31.7105 96.9736 32.2368 93.9473 32.2368C90.921 32.2368 88.1578 31.7105 86.0526 30.7895C82.3684 29.2105 81.5789 25.2632 81.5789 21.4474V7.89474C81.5789 5.26316 81.842 2.63158 80.6578 0.131579V0H89.7368V0.131579C88.8157 2.5 88.9473 5.39474 88.8157 7.89474V20C88.8157 21.8421 88.9473 23.5526 90.1315 25.1316C90.7894 26.0526 92.2368 26.7105 93.421 26.7105H94.4736Z" fill="#AA003E"/>
<path d="M62.1053 4.47368C62.5 4.47368 63.6842 4.47368 64.079 4.47368C67.8948 4.73684 69.7369 6.18421 69.7369 10.7895C69.7369 15 66.579 16.7105 63.5527 17.8947C64.079 18.0263 64.7369 18.0263 65.2632 18.0263C71.1842 18.0263 76.7106 15.3947 76.7106 8.68421C76.7106 5.39474 75 2.76316 72.2369 1.31579C70.1316 0 66.579 0 63.9474 0H53.2895V0.131579C54.8684 1.71053 54.6053 5.13158 54.7369 7.89474V24.4737C54.7369 26.9737 55.1316 29.6053 52.7632 31.1842V31.3158H64.2106V31.1842C62.1053 29.3421 62.1053 27.1053 62.1053 24.4737V4.47368Z" fill="#AA003E"/>
<path d="M0 34.6053C15.6579 33.5526 27.1053 21.9737 46.7105 30.3947V30.5263C30.9211 28.9474 19.0789 41.0526 0 34.7368V34.6053Z" fill="#AA003E"/>
</g>
<defs>
<clipPath id="clip0">
<rect width="240" height="36.5789" fill="white"/>
</clipPath>
</defs>
</svg>
